<mxfile host="app.diagrams.net" modified="2023-12-22T13:30:10.421Z" agent="Mozilla/5.0 (Macintosh; Intel Mac OS X 10_15_7) AppleWebKit/605.1.15 (KHTML, like Gecko) Version/16.4 Safari/605.1.15" version="22.1.11" etag="0936vwGz1ZUzEdR5NKQm" type="github">
  <diagram name="Page-1" id="HHG7lxXHLpQp0_RWTWfH">
    <mxGraphModel>
      <root>
        <mxCell id="0" />
        <mxCell id="1" parent="0" />
      </root>
    </mxGraphModel>
  </diagram>
</mxfile>
